<?xml version="1.0" encoding="UTF-8"?>
<svg width="16px" height="16px" viewBox="0 0 16 16" version="1.1" xmlns="http://www.w3.org/2000/svg" xmlns:xlink="http://www.w3.org/1999/xlink">
    <title>隐藏</title>
    <g id="设计页面" stroke="none" stroke-width="1" fill="none" fill-rule="evenodd">
        <g id="登录页1" transform="translate(-1040.000000, -418.000000)" fill-rule="nonzero">
            <g id="编组-6" transform="translate(280.000000, 193.000000)">
                <g id="编组-7" transform="translate(470.000000, 70.000000)">
                    <g id="编组" transform="translate(0.000000, 84.000000)">
                        <g id="编组-18" transform="translate(0.000000, 58.000000)">
                            <g id="隐藏" transform="translate(290.000000, 13.000000)">
                                <rect id="矩形" fill="#000000" opacity="0" x="0" y="0" width="16" height="16"></rect>
                                <path d="M14.746,5.155 L14.737,5.147 C14.5919385,5.03211989 14.4063741,4.98121603 14.223,5.006 C14.0461057,5.0353322 13.8866222,5.1298806 13.776,5.271 L13.767,5.279 C13.486,5.603 10.935,8.402 8.002,8.402 C5.153,8.402 2.502,5.57 2.212,5.246 L2.203,5.238 C1.9538831,4.95912506 1.52747373,4.9307113 1.24355799,5.17406765 C0.959642247,5.41742401 0.922506173,5.84316243 1.16,6.132 C1.58713214,6.62434746 2.05843137,7.07656711 2.568,7.483 L1.476,8.585 C1.34351371,8.71646062 1.27425131,8.89873009 1.286,9.085 C1.29556795,9.25848193 1.36644849,9.42292477 1.486,9.549 C1.58925599,9.69659768 1.76108556,9.78081305 1.941,9.772 C2.12504147,9.77077309 2.30101262,9.69628223 2.43,9.565 L3.665,8.322 C4.26957998,8.72473007 4.91643343,9.06006105 5.594,9.322 L5.122,10.863 C5.06825696,11.0421069 5.08995915,11.2353908 5.18208396,11.3981195 C5.27420878,11.5608482 5.42877106,11.6789167 5.61,11.725 L5.635,11.7330156 L5.809,11.7330156 C6.12455603,11.7351342 6.39947955,11.5183516 6.471,11.211 L6.944,9.67 C7.29719522,9.72722717 7.65421435,9.75764734 8.012,9.761 C8.36978439,9.75762062 8.7268015,9.72720062 9.08,9.67 L9.553,11.186 C9.6330189,11.4866762 9.90387287,11.6969768 10.215,11.7 C10.2889925,11.704926 10.3630131,11.6908104 10.43,11.659 C10.7875692,11.5380753 10.9848675,11.1554227 10.876,10.794 L10.404,9.278 C11.0834748,9.01960714 11.731046,8.68407802 12.334,8.278 L13.545,9.494 C13.6730955,9.62628172 13.8493617,9.70095904 14.0335,9.70095904 C14.2176383,9.70095904 14.3939045,9.62628172 14.522,9.494 C14.7860821,9.23309431 14.8005626,8.8114065 14.555,8.533 L13.455,7.423 C13.9716082,7.03049969 14.4476461,6.58729198 14.876,6.1 L14.893,6.083 C15.0747074,5.77841775 15.0119237,5.38738932 14.744,5.155 L14.746,5.155 Z" id="路径" fill="#BBC1C7"></path>
                            </g>
                        </g>
                    </g>
                </g>
            </g>
        </g>
    </g>
</svg>