<?xml version="1.0" encoding="UTF-8"?>
<svg width="16px" height="16px" viewBox="0 0 16 16" version="1.1" xmlns="http://www.w3.org/2000/svg" xmlns:xlink="http://www.w3.org/1999/xlink">
    <title>编组 18</title>
    <g id="设计页面" stroke="none" stroke-width="1" fill="none" fill-rule="evenodd">
        <g id="登录页1" transform="translate(-1088.000000, -416.000000)">
            <g id="编组-6" transform="translate(280.000000, 193.000000)">
                <g id="编组-18" transform="translate(808.000000, 223.000000)">
                    <rect id="矩形" fill="#D8D8D8" opacity="0" x="0" y="0" width="16" height="16"></rect>
                    <g id="编组-17" transform="translate(0.516974, 2.516974)" stroke="#BBC1C7" stroke-width="1.5">
                        <path d="M7.48302594,0.75 C9.23757116,0.75 10.9934523,1.33700181 12.2878298,2.28542902 C13.419159,3.11438614 14.2160519,4.22702379 14.2160519,5.48302594 C14.2160519,6.73902809 13.419159,7.85166574 12.2878298,8.68062286 C10.9934523,9.62905007 9.23757116,10.2160519 7.48302594,10.2160519 C5.72848072,10.2160519 3.9725996,9.62905007 2.6782221,8.68062286 C1.54689285,7.85166574 0.75,6.73902809 0.75,5.48302594 C0.75,4.22702379 1.54689285,3.11438614 2.6782221,2.28542902 C3.9725996,1.33700181 5.72848072,0.75 7.48302594,0.75 Z" id="椭圆形"></path>
                        <circle id="椭圆形" cx="7.48302594" cy="5.48302594" r="1.7739378"></circle>
                    </g>
                </g>
            </g>
        </g>
    </g>
</svg>